<svg xmlns="http://www.w3.org/2000/svg" width="24" height="24" viewBox="0 0 24 24" fill="none">
    <path d="M15.0231 20.1934L14.5695 19.5313L14.1752 20.2304C13.7474 20.9889 12.9333 21.5 12 21.5C11.0669 21.5 10.2524 20.989 9.82244 20.2292L9.42701 19.5304L8.97433 20.1935C8.43515 20.9833 7.52808 21.5 6.5 21.5C4.90074 21.5 3.59346 20.2483 3.50481 18.6715L3.5 18.4933V11C3.5 6.30558 7.30558 2.5 12 2.5C16.6945 2.5 20.5 6.30558 20.5 11V18.5C20.5 20.1569 19.1569 21.5 17.5 21.5C16.472 21.5 15.5645 20.9834 15.0231 20.1934ZM15.5 10C15.5 9.2419 14.8497 8.5 14 8.5C13.1503 8.5 12.5 9.2419 12.5 10C12.5 10.4126 12.7013 10.7834 12.9589 11.0411C13.2166 11.2987 13.5874 11.5 14 11.5C14.8497 11.5 15.5 10.7581 15.5 10ZM11.5 10C11.5 9.19999 10.8587 8.5 10 8.5C9.25881 8.5 8.5 9.08468 8.5 10C8.5 10.9153 9.25881 11.5 10 11.5C10.4126 11.5 10.7834 11.2987 11.0411 11.0411C11.2987 10.7834 11.5 10.4126 11.5 10Z" fill="#F7941E" stroke="#343A40"/>
</svg>